<svg id="Слой_1" data-name="Слой 1" xmlns="http://www.w3.org/2000/svg" viewBox="0 0 678 678"><defs><style>.cls-1{fill:#5bc7ca;}.cls-2{fill:#191726;}</style></defs><path class="cls-1" d="M254.23,319.84c-11.61,0-21.82-7.28-21.82-19.73,0-13.71,7.69-24.9,23.08-24.9,12.31,0,22.1,9.51,22.1,21.54C277.59,311,266.4,319.84,254.23,319.84Zm-22.1-46.45c0-16.36,8.67-26.71,23.78-26.71,6.71,0,14.13,1.82,18.74,6.57s10.91-1.82,6.86-6c-6.44-6.58-15.53-9.8-24.76-9.8-21.12,0-34.27,12.87-34.27,36.51v26.16c0,16.79,14,29.1,31.61,29.1,18,0,33.85-12.59,33.71-32.46-.14-18.18-14.83-31.05-32.45-31.05-8.39,0-17.91,3.5-23.22,12.73Z"/><path class="cls-1" d="M315.5,319.28,334,307.11,350.75,294c8-5.88,13.85-15.95,13.85-26.44,0-12.87-9.51-30.08-31.34-30.08-15.94,0-28.95,7.42-31.05,24.2-.84,7,9,8,9.65,1.4,1.54-11.61,10.07-16.22,21.4-16.22,11.75,0,21.55,6.57,21.55,20.14,0,17.21-20.71,28.68-51.76,51.34a5.3,5.3,0,0,0-2.1,4.05,5.62,5.62,0,0,0,5.32,5.46h55c7,0,6.86-9.37-.14-9.37h-25Z"/><path class="cls-1" d="M444.33,308.92c-.28,7-4.06,11.75-9.93,11.75-6.3,0-10.07-6.15-10.07-11.61,0-6,4.47-11.19,10.07-11.19C440.41,297.87,444.19,303.47,444.33,308.92Zm-9.93-19.58c-11.33,0-18.74,9.65-18.74,19.72,0,11.89,8.25,20.15,18.74,20.15,11.61,0,18.74-10.35,18.74-20.15C453.14,297.87,444.75,289.34,434.4,289.34ZM404.74,257c-.28,7-4.05,11.75-9.93,11.75-6.29,0-10.07-6.16-10.07-11.61,0-6,4.48-11.19,10.07-11.19C400.83,246,404.6,251.57,404.74,257Zm-9.93-19.59c-11.33,0-18.74,9.66-18.74,19.73,0,11.89,8.25,20.14,18.74,20.14,11.61,0,18.75-10.35,18.75-20.14C413.56,246,405.16,237.44,394.81,237.44Zm-6.43,90.37,60.57-86c3.07-5.17-4.34-9.51-7.28-4.89l-61,85.46C376.91,327.11,383.9,333.12,388.38,327.81Z"/><path class="cls-2" d="M339.7,77.42C195.08,77.42,77.42,195.08,77.42,339.7S195.08,602,339.7,602,602,484.32,602,339.7,484.32,77.42,339.7,77.42Zm-.7,597.3a338.64,338.64,0,0,1-67.66-6.82,333.57,333.57,0,0,1-120-50.52A336.79,336.79,0,0,1,29.66,469.67a334,334,0,0,1-19.56-63,339,339,0,0,1,0-135.32,333.57,333.57,0,0,1,50.52-120,335.71,335.71,0,0,1,607.28,120,339,339,0,0,1,0,135.32A335.58,335.58,0,0,1,406.66,667.9,338.64,338.64,0,0,1,339,674.72Z"/><path class="cls-1" d="M510.93,536.28q2-1.75,4-3.57h0l.07-.06v0l.06,0,0,0,0-.06,0,0,.05-.05,0,0,.09-.08,0,0,0,0,.05,0,0,0,.06,0,0,0,.06-.06,0,0,.06-.06,0,0,.35-.32h0l.09-.08h0a.34.34,0,0,1,.09-.08h0q6.5-6,12.69-12.6h0l.41-.44h0l.07-.08h0l.08-.08h0a.6.6,0,0,0,.08-.08h0l.25-.26h0l.07-.08h0l.06-.07,0,0,.06-.07,0,0,.16-.17h0l.08-.09h0l.07-.07,0,0,.06-.07,0,0,.06-.06,0,0a.27.27,0,0,1,.07-.08h0c.06-.06.11-.12.17-.17v0l.06-.07,0,0,0-.05,0,0,.05-.06,0,0,0-.06,0,0,.07-.07v0l.08-.08,0,0,.06-.07,0,0,0,0,0,0,0-.05,0,0,0-.05,0,0,.06-.06,0,0a1.29,1.29,0,0,1,.16-.17l0,0,.06-.06,0,0,.05-.07,0,0,0-.06,0,0,0-.05,0,0,.06-.07h0l.08-.09,0,0,.06-.06,0,0,0-.05,0,0,0,0,0,0,0,0,0,0,.06-.07,0,0,.07-.09L588,564.16a339.14,339.14,0,0,1-28.22,27.77ZM89.51,114.36,143.57,163c-.16.16-.32.34-.47.51A261.27,261.27,0,0,0,75.85,339.22l-72.57.07V339h0v-1.27c0-.16,0-.32,0-.48v-.77h0v-.5q.09-9.33.69-18.64H4c0-.25,0-.5,0-.75H4c0-.25,0-.5,0-.75h0l0-.49h0c0-.09,0-.16,0-.24h0l0-.49v0c0-.07,0-.15,0-.23h0c0-.15,0-.32,0-.48v0c0-.16,0-.32,0-.48v0c0-.07,0-.14,0-.21v0l0-.47s0,0,0,0,0-.13,0-.19v0l0-.24h0c0-.07,0-.15,0-.22a.13.13,0,0,0,0-.06c0-.06,0-.13,0-.19s0,0,0,0a1.79,1.79,0,0,1,0-.23V311a.11.11,0,0,0,0-.05c0-.08,0-.14,0-.22v0a2,2,0,0,1,0-.23v-.05c0-.06,0-.12,0-.18v-.06a1.64,1.64,0,0,0,0-.22h0c0-.08,0-.16,0-.23s0,0,0-.06,0-.12,0-.18a.13.13,0,0,1,0-.06,1.8,1.8,0,0,1,0-.22v0c0-.06,0-.13,0-.18v-.08c0-.05,0-.11,0-.17v-.05a1.8,1.8,0,0,0,0-.22s0-.05,0-.07,0-.1,0-.16a.19.19,0,0,0,0-.08,1,1,0,0,1,0-.17V308c0-.07,0-.14,0-.21s0-.06,0-.08,0-.11,0-.16,0-.05,0-.07,0-.14,0-.21v-.06a1,1,0,0,0,0-.17.22.22,0,0,1,0-.08c0-.05,0-.1,0-.15a.22.22,0,0,0,0-.08c0-.07,0-.14,0-.21a.15.15,0,0,1,0-.07c0-.05,0-.1,0-.15a.28.28,0,0,0,0-.09c0-.05,0-.1,0-.15a.22.22,0,0,0,0-.08,1.36,1.36,0,0,0,0-.2.28.28,0,0,0,0-.09.66.66,0,0,0,0-.14.28.28,0,0,0,0-.09c0-.05,0-.1,0-.16s0-.06,0-.09,0-.12,0-.18a.28.28,0,0,1,0-.09.57.57,0,0,1,0-.13s0-.06,0-.1,0-.12,0-.18a.34.34,0,0,1,0-.1c0-.05,0-.09,0-.13a.41.41,0,0,0,0-.11s0-.09,0-.13v-.09l0-.2a.28.28,0,0,1,0-.09c0-.05,0-.09,0-.13v-.1a.62.62,0,0,0,0-.13.31.31,0,0,0,0-.09,1.5,1.5,0,0,0,0-.2.38.38,0,0,0,0-.1s0-.08,0-.13,0-.06,0-.1,0-.1,0-.14,0-.09,0-.13,0-.09,0-.14,0-.08,0-.11V302s0-.07,0-.1,0-.11,0-.17a.53.53,0,0,0,0-.13s0-.07,0-.12a.34.34,0,0,1,0-.1s0-.08,0-.12a.41.41,0,0,0,0-.11l0-.19a.45.45,0,0,1,0-.11s0-.07,0-.1,0-.08,0-.12a.41.41,0,0,0,0-.11l0-.18a.49.49,0,0,1,0-.12s0-.08,0-.12a.31.31,0,0,0,0-.1l0-.11s0-.08,0-.12a1,1,0,0,0,0-.17s0-.08,0-.12a.37.37,0,0,1,0-.11s0-.08,0-.11,0-.07,0-.11a1.1,1.1,0,0,1,0-.18s0-.08,0-.11a.69.69,0,0,1,0-.13.34.34,0,0,1,0-.1s0-.08,0-.12a.38.38,0,0,0,0-.1l0-.19a.37.37,0,0,1,0-.11s0-.08,0-.12,0-.07,0-.1,0-.09,0-.13l0-.13a.78.78,0,0,1,0-.16s0-.07,0-.1a.49.49,0,0,0,0-.12.43.43,0,0,0,0-.11.78.78,0,0,1,0-.14s0-.09,0-.14l0-.13s0-.07,0-.1,0-.09,0-.13v-.09l0-.2a.41.41,0,0,1,0-.11A.52.52,0,0,1,6,296a.45.45,0,0,1,0-.11s0-.08,0-.12,0-.06,0-.1a1.23,1.23,0,0,1,0-.19.38.38,0,0,0,0-.1l0-.13v-.09a.88.88,0,0,0,0-.16s0-.06,0-.09a1.1,1.1,0,0,1,0-.18s0-.06,0-.09,0-.09,0-.14,0-.05,0-.08l0-.21v-.07a.77.77,0,0,1,0-.15s0-.06,0-.09,0-.1,0-.15,0,0,0-.07l0-.21a.2.2,0,0,1,0-.07.77.77,0,0,1,0-.15s0-.06,0-.09a.88.88,0,0,0,0-.17.08.08,0,0,0,0,0l0-.22s0-.05,0-.07,0-.11,0-.17a.13.13,0,0,0,0-.06l0-.22a334.55,334.55,0,0,1,83-177.86Zm0,0a338.17,338.17,0,0,1,50.34-45.71A333.61,333.61,0,0,1,257.72,13.24a336.59,336.59,0,0,1,191.16,8.44,335.31,335.31,0,0,1,215.89,236,336.68,336.68,0,0,1-8.45,191.16,333.82,333.82,0,0,1-27.63,59.92,338.35,338.35,0,0,1-40.2,54.84l-.47.52-55.1-49.61C629.7,407.08,621,240.91,513.51,144.14,406.21,47.52,240.41,56,143.57,163Z"/><path class="cls-1" d="M185.84,398.55V374a3.53,3.53,0,0,0-3.62-3.53,3.32,3.32,0,0,0-3.43,3.53V429.1a3.57,3.57,0,0,0,3.72,3.62,3.31,3.31,0,0,0,3.33-3.62V404.72h36V429a3.49,3.49,0,0,0,3.52,3.72A3.57,3.57,0,0,0,229,429V374a3.57,3.57,0,0,0-7.14,0v24.58Z"/><path class="cls-1" d="M248.31,406.18c.88-11.75,9.31-17.33,18.51-17.33,8.23,0,17.43,5.58,18.41,17.33Zm43.77,1.47c-.29-17.72-12.53-25.45-25.75-25.45-12.53,0-25,9-25,25.55,0,14.79,10,25.95,25.46,25.95,6.36.1,12.93-1.66,17.43-5.88,3.82-3.91-1.27-7.93-4.7-4.79a21.28,21.28,0,0,1-13,4.11,17.79,17.79,0,0,1-17.92-15h38.67C291.3,412.16,292.08,409.81,292.08,407.65Z"/><path class="cls-1" d="M311,429.39V370.64a3.58,3.58,0,0,0-7.15,0v58.75a3.58,3.58,0,0,0,7.15,0Z"/><path class="cls-1" d="M323.61,386.41v43.08c0,2.15,1.76,3.23,3.63,3.23a3.26,3.26,0,0,0,3.52-3.23V386.31a3.25,3.25,0,0,0-3.52-3.14A3.35,3.35,0,0,0,323.61,386.41Zm7.25-15.18v-.49a3.68,3.68,0,0,0-7.35,0v.49a3.37,3.37,0,0,0,3.63,3.33C329,374.56,330.86,373.48,330.86,371.23Z"/><path class="cls-1" d="M351.13,411.77V385.62a3.29,3.29,0,0,0-3.63-3.42,3.16,3.16,0,0,0-3.52,3.42v26.15c0,14.1,10.87,21.93,22.23,21.93,7.63,0,15.17-3.13,18.7-10.28v5.78a3.53,3.53,0,0,0,7,.09V385.62c0-2.15-1.47-3.42-3.72-3.42a3.17,3.17,0,0,0-3.53,3.42v22.91A18.59,18.59,0,0,1,366.3,427,15.14,15.14,0,0,1,351.13,411.77Z"/><path class="cls-1" d="M489.39,403.35v25.94a3.17,3.17,0,0,0,3.52,3.43,3.29,3.29,0,0,0,3.62-3.43V403.05c0-13.41-11.35-20.85-22.61-20.85-8.72,0-17.24,4.11-20.76,12.82-2.94-8.71-11.36-12.82-19.88-12.82-7.54,0-14.49,3-18.41,10.08V386.6a3.29,3.29,0,0,0-3.43-3.43,3.49,3.49,0,0,0-3.52,3.43v42.79a3.58,3.58,0,0,0,7.15,0V407.26A18.09,18.09,0,0,1,433.38,389a15.83,15.83,0,0,1,8.42,2.25c4.5,2.84,6.75,8.23,6.75,13.81v24.28a3.63,3.63,0,0,0,7.25,0V407.75c0-11.26,8.13-18.9,18.41-18.9C482.43,388.85,489.19,394.92,489.39,403.35Z"/></svg>