<svg xmlns="http://www.w3.org/2000/svg" width="161.938" height="100.022" viewBox="0 0 161.938 100.022">
  <defs>
    <style>
      .cls-1 {
        fill: #50fff9;
      }
    </style>
  </defs>
  <g id="arrow-left-1" transform="translate(161.938) rotate(90)">
    <path id="Arrow-left-1-2" data-name="Arrow-left-1" class="cls-1" d="M.064,144.978a16.87,16.87,0,0,1,5-12.029L58.19,80.969,5.062,28.99a16.755,16.755,0,0,1,0-24A17.254,17.254,0,0,1,17.313,0,17.254,17.254,0,0,1,29.564,4.99L94.936,68.975a16.66,16.66,0,0,1,0,23.966l-65.31,64.008a17.254,17.254,0,0,1-12.251,4.99,17.254,17.254,0,0,1-12.251-4.99,16.764,16.764,0,0,1-5-11.971" transform="translate(0 0)"/>
  </g>
</svg>
