<svg xmlns="http://www.w3.org/2000/svg" width="110" height="109.962" viewBox="0 0 110 109.962">
  <path id="home-Regular_1_" d="M305.254,1040.8l-28.205-22.677a26.979,26.979,0,0,0-33.6,0L215.246,1040.8a26.627,26.627,0,0,0-10,20.849v33.8a26.813,26.813,0,0,0,26.795,26.767h15.513v-26.767a12.692,12.692,0,0,1,25.385,0v26.767h15.513a26.81,26.81,0,0,0,26.795-26.767v-33.8A26.625,26.625,0,0,0,305.254,1040.8Zm1.534,54.65a18.342,18.342,0,0,1-18.333,18.305H281.4v-18.305a21.154,21.154,0,0,0-42.308,0v18.305h-7.051a18.342,18.342,0,0,1-18.333-18.305v-33.8a18.2,18.2,0,0,1,6.831-14.255l28.205-22.677a18.476,18.476,0,0,1,23,0l28.205,22.677a18.2,18.2,0,0,1,6.831,14.255v33.8Z" transform="translate(-205.25 -1012.257)" fill="#76ffff"/>
</svg>
