<svg id="add" xmlns="http://www.w3.org/2000/svg" width="162" height="161.939" viewBox="0 0 162 161.939">
  <path id="Add-2" data-name="Add" d="M144.6,63.619H99.489a2.487,2.487,0,0,1-2.313-2.313V17.353A16.124,16.124,0,0,0,80.983,0a17.037,17.037,0,0,0-17.349,17.35V62.462a2.487,2.487,0,0,1-2.313,2.313H17.369A15.522,15.522,0,0,0,.02,80.968a17.789,17.789,0,0,0,17.349,17.35H62.477a2.487,2.487,0,0,1,2.313,2.313v45.109a15.788,15.788,0,0,0,16.193,16.193,17.789,17.789,0,0,0,17.349-17.35V99.475a2.487,2.487,0,0,1,2.313-2.313h45.108a16.54,16.54,0,0,0,16.193-16.193A16.1,16.1,0,0,0,144.6,63.619Z" transform="translate(0 0)" fill="#50fff9"/>
</svg>
