<svg xmlns="http://www.w3.org/2000/svg" width="240" height="240.002" viewBox="0 0 240 240.002"><defs><style>.a,.d{fill:#5bc7ca;font-family:Hero-Regular, Hero;}.a{font-size:50px;}.b{fill:#191726;}.c{fill:#131220;stroke-dasharray:673 768;}.d{font-size:40px;}.e,.f{stroke:none;}.f{fill:#5bc7ca;}</style></defs><text class="a" transform="translate(0 71)"><tspan x="-43.525" y="48">92%</tspan></text><path class="b" d="M5312-14954a120.936,120.936,0,0,1-24.185-2.437,119.383,119.383,0,0,1-22.525-6.992,119.912,119.912,0,0,1-20.384-11.066,120.765,120.765,0,0,1-17.761-14.652,120.889,120.889,0,0,1-14.652-17.76,119.9,119.9,0,0,1-11.064-20.385,119.432,119.432,0,0,1-6.992-22.525A120.9,120.9,0,0,1,5192-15074a120.919,120.919,0,0,1,2.438-24.184,119.476,119.476,0,0,1,6.992-22.525,120.122,120.122,0,0,1,11.064-20.385,120.771,120.771,0,0,1,14.652-17.758,120.859,120.859,0,0,1,17.761-14.654,120.029,120.029,0,0,1,20.384-11.062,119.241,119.241,0,0,1,22.525-6.992A120.937,120.937,0,0,1,5312-15194a120.92,120.92,0,0,1,24.184,2.439,119.253,119.253,0,0,1,22.524,6.992,120.075,120.075,0,0,1,20.385,11.063,120.843,120.843,0,0,1,17.759,14.654,120.908,120.908,0,0,1,14.654,17.758,120.186,120.186,0,0,1,11.063,20.385,119.4,119.4,0,0,1,6.992,22.525A120.919,120.919,0,0,1,5432-15074a120.9,120.9,0,0,1-2.437,24.184,119.361,119.361,0,0,1-6.992,22.525,120.18,120.18,0,0,1-11.063,20.385,120.923,120.923,0,0,1-14.654,17.76,120.9,120.9,0,0,1-17.759,14.652,119.958,119.958,0,0,1-20.385,11.066,119.4,119.4,0,0,1-22.524,6.992A120.919,120.919,0,0,1,5312-14954Zm.249-213.5a93.857,93.857,0,0,0-93.75,93.752,93.856,93.856,0,0,0,93.75,93.75,93.855,93.855,0,0,0,93.749-93.75A93.856,93.856,0,0,0,5312.25-15167.5Z" transform="translate(-5192 15194)"/><g class="c" transform="translate(-14954 -5191.997) rotate(90)"><path class="e" d="M5312-14954a120.939,120.939,0,0,1-24.185-2.437,119.508,119.508,0,0,1-22.526-6.992,120.11,120.11,0,0,1-20.384-11.063,120.917,120.917,0,0,1-17.759-14.652,120.948,120.948,0,0,1-14.653-17.759,120.071,120.071,0,0,1-11.064-20.385,119.39,119.39,0,0,1-6.992-22.524A120.883,120.883,0,0,1,5192-15074a120.886,120.886,0,0,1,2.438-24.185,119.4,119.4,0,0,1,6.992-22.526,120.083,120.083,0,0,1,11.064-20.385,120.889,120.889,0,0,1,14.653-17.759,120.883,120.883,0,0,1,17.759-14.653,120.11,120.11,0,0,1,20.384-11.063,119.5,119.5,0,0,1,22.526-6.992A120.936,120.936,0,0,1,5312-15194a120.929,120.929,0,0,1,24.184,2.438,119.465,119.465,0,0,1,22.525,6.992,119.989,119.989,0,0,1,20.383,11.063,120.883,120.883,0,0,1,17.759,14.653,120.921,120.921,0,0,1,14.653,17.759,120.1,120.1,0,0,1,11.063,20.385,119.4,119.4,0,0,1,6.992,22.526A120.886,120.886,0,0,1,5432-15074a120.883,120.883,0,0,1-2.438,24.184,119.39,119.39,0,0,1-6.992,22.524,120.046,120.046,0,0,1-11.063,20.385,120.98,120.98,0,0,1-14.653,17.759,120.855,120.855,0,0,1-17.759,14.652,119.989,119.989,0,0,1-20.383,11.063,119.465,119.465,0,0,1-22.525,6.992A120.933,120.933,0,0,1,5312-14954Zm.248-213.748a93.707,93.707,0,0,0-93.6,93.6,93.707,93.707,0,0,0,93.6,93.6,93.709,93.709,0,0,0,93.6-93.6A93.709,93.709,0,0,0,5312.249-15167.75Z"/><path class="f" d="M 5312.00048828125 -14954.001953125 C 5303.859375 -14954.001953125 5295.72216796875 -14954.822265625 5287.81591796875 -14956.439453125 C 5280.111328125 -14958.0166015625 5272.5322265625 -14960.369140625 5265.28955078125 -14963.431640625 C 5258.17724609375 -14966.4404296875 5251.3193359375 -14970.1630859375 5244.90576171875 -14974.4951171875 C 5238.55126953125 -14978.7880859375 5232.576171875 -14983.71875 5227.146484375 -14989.1474609375 C 5221.71484375 -14994.580078125 5216.78466796875 -15000.5546875 5212.4931640625 -15006.90625 C 5208.16015625 -15013.3203125 5204.43798828125 -15020.1787109375 5201.42919921875 -15027.291015625 C 5198.3671875 -15034.5302734375 5196.0146484375 -15042.1083984375 5194.4375 -15049.8154296875 C 5192.81982421875 -15057.720703125 5191.99951171875 -15065.857421875 5191.99951171875 -15073.9990234375 C 5191.99951171875 -15082.1416015625 5192.81982421875 -15090.2783203125 5194.4375 -15098.18359375 C 5196.0146484375 -15105.890625 5198.36669921875 -15113.4697265625 5201.42919921875 -15120.7099609375 C 5204.43701171875 -15127.8203125 5208.1591796875 -15134.6787109375 5212.4931640625 -15141.0947265625 C 5216.78662109375 -15147.44921875 5221.716796875 -15153.423828125 5227.146484375 -15158.853515625 C 5232.5751953125 -15164.2822265625 5238.55029296875 -15169.212890625 5244.90576171875 -15173.5068359375 C 5251.3193359375 -15177.8388671875 5258.17724609375 -15181.5615234375 5265.28955078125 -15184.5703125 C 5272.5322265625 -15187.6328125 5280.11083984375 -15189.9853515625 5287.81591796875 -15191.5625 C 5295.72216796875 -15193.1796875 5303.85888671875 -15194 5312.00048828125 -15194 C 5320.1416015625 -15194 5328.27783203125 -15193.1796875 5336.18408203125 -15191.5625 C 5343.88916015625 -15189.9853515625 5351.4677734375 -15187.6328125 5358.70947265625 -15184.5703125 C 5365.82275390625 -15181.5615234375 5372.6806640625 -15177.8388671875 5379.09228515625 -15173.5068359375 C 5385.44775390625 -15169.212890625 5391.4228515625 -15164.2822265625 5396.8515625 -15158.853515625 C 5402.27978515625 -15153.42578125 5407.2099609375 -15147.4501953125 5411.5048828125 -15141.0947265625 C 5415.83984375 -15134.67578125 5419.5625 -15127.8173828125 5422.568359375 -15120.7099609375 C 5425.630859375 -15113.4697265625 5427.98291015625 -15105.890625 5429.56005859375 -15098.18359375 C 5431.177734375 -15090.2783203125 5431.998046875 -15082.1416015625 5431.998046875 -15073.9990234375 C 5431.998046875 -15065.857421875 5431.177734375 -15057.720703125 5429.56005859375 -15049.8154296875 C 5427.98291015625 -15042.1083984375 5425.63037109375 -15034.5302734375 5422.568359375 -15027.291015625 C 5419.56103515625 -15020.1806640625 5415.8388671875 -15013.322265625 5411.5048828125 -15006.90625 C 5407.2119140625 -15000.5537109375 5402.28173828125 -14994.578125 5396.8515625 -14989.1474609375 C 5396.8515625 -14989.1474609375 5396.8515625 -14989.1474609375 5396.8515625 -14989.1474609375 C 5396.82861328125 -14989.125 5396.8056640625 -14989.1015625 5396.78271484375 -14989.0791015625 C 5396.775390625 -14989.0712890625 5396.7685546875 -14989.064453125 5396.76123046875 -14989.0576171875 C 5396.74609375 -14989.0419921875 5396.72998046875 -14989.0263671875 5396.71435546875 -14989.0107421875 C 5396.70556640625 -14989.001953125 5396.6962890625 -14988.9921875 5396.6875 -14988.9833984375 C 5396.67333984375 -14988.9697265625 5396.6591796875 -14988.9560546875 5396.6455078125 -14988.94140625 C 5396.63623046875 -14988.9326171875 5396.626953125 -14988.923828125 5396.61767578125 -14988.9140625 C 5396.603515625 -14988.900390625 5396.59033203125 -14988.88671875 5396.576171875 -14988.873046875 C 5396.56689453125 -14988.86328125 5396.55712890625 -14988.853515625 5396.54736328125 -14988.8447265625 C 5396.53369140625 -14988.8310546875 5396.51953125 -14988.8173828125 5396.505859375 -14988.8037109375 C 5396.4970703125 -14988.794921875 5396.48779296875 -14988.78515625 5396.47900390625 -14988.7763671875 C 5396.4638671875 -14988.76171875 5396.44873046875 -14988.7470703125 5396.43359375 -14988.7314453125 C 5396.42529296875 -14988.7236328125 5396.41796875 -14988.7158203125 5396.4091796875 -14988.7080078125 C 5396.36376953125 -14988.662109375 5396.318359375 -14988.6171875 5396.2724609375 -14988.572265625 C 5396.26416015625 -14988.564453125 5396.255859375 -14988.5556640625 5396.24755859375 -14988.5478515625 C 5396.232421875 -14988.533203125 5396.2177734375 -14988.5185546875 5396.20263671875 -14988.50390625 C 5396.19384765625 -14988.4951171875 5396.185546875 -14988.486328125 5396.1767578125 -14988.478515625 C 5396.162109375 -14988.4638671875 5396.1474609375 -14988.44921875 5396.1328125 -14988.4345703125 C 5396.1240234375 -14988.4267578125 5396.115234375 -14988.4169921875 5396.1064453125 -14988.4091796875 C 5396.091796875 -14988.39453125 5396.0771484375 -14988.3798828125 5396.06201171875 -14988.365234375 C 5396.0537109375 -14988.3564453125 5396.044921875 -14988.3486328125 5396.0361328125 -14988.33984375 C 5396.021484375 -14988.3251953125 5396.0068359375 -14988.3115234375 5395.9921875 -14988.296875 C 5395.98388671875 -14988.2880859375 5395.974609375 -14988.2802734375 5395.96630859375 -14988.271484375 C 5395.94921875 -14988.2548828125 5395.931640625 -14988.2373046875 5395.91455078125 -14988.220703125 C 5395.90869140625 -14988.21484375 5395.9033203125 -14988.2099609375 5395.89794921875 -14988.2041015625 C 5395.8505859375 -14988.158203125 5395.8037109375 -14988.1123046875 5395.75634765625 -14988.06640625 C 5395.7509765625 -14988.0615234375 5395.74609375 -14988.056640625 5395.74072265625 -14988.05078125 C 5395.72265625 -14988.033203125 5395.705078125 -14988.0166015625 5395.68701171875 -14987.9990234375 C 5395.67919921875 -14987.9912109375 5395.67138671875 -14987.9833984375 5395.66357421875 -14987.9765625 C 5395.64794921875 -14987.9609375 5395.63232421875 -14987.9453125 5395.6162109375 -14987.9296875 C 5395.6083984375 -14987.921875 5395.6015625 -14987.916015625 5395.59375 -14987.908203125 C 5395.5771484375 -14987.8916015625 5395.56103515625 -14987.8759765625 5395.54443359375 -14987.8603515625 C 5395.537109375 -14987.853515625 5395.5302734375 -14987.8466796875 5395.5224609375 -14987.8388671875 C 5395.50537109375 -14987.822265625 5395.48779296875 -14987.8056640625 5395.470703125 -14987.7890625 C 5395.46484375 -14987.783203125 5395.458984375 -14987.77734375 5395.45263671875 -14987.771484375 C 5395.43310546875 -14987.751953125 5395.41259765625 -14987.732421875 5395.392578125 -14987.7138671875 C 5395.38916015625 -14987.7099609375 5395.38623046875 -14987.70703125 5395.38232421875 -14987.703125 C 5395.33447265625 -14987.6572265625 5395.2861328125 -14987.6103515625 5395.23779296875 -14987.5634765625 C 5395.23486328125 -14987.560546875 5395.232421875 -14987.55859375 5395.2294921875 -14987.5556640625 C 5395.20849609375 -14987.5361328125 5395.1875 -14987.515625 5395.16650390625 -14987.4951171875 C 5395.16162109375 -14987.490234375 5395.15673828125 -14987.4853515625 5395.1513671875 -14987.48046875 C 5395.1328125 -14987.462890625 5395.1142578125 -14987.4453125 5395.095703125 -14987.427734375 C 5395.08984375 -14987.421875 5395.08447265625 -14987.416015625 5395.078125 -14987.41015625 C 5395.0595703125 -14987.392578125 5395.04052734375 -14987.3740234375 5395.02197265625 -14987.3564453125 C 5395.01708984375 -14987.3515625 5395.01171875 -14987.3466796875 5395.0068359375 -14987.341796875 C 5394.98681640625 -14987.3232421875 5394.96630859375 -14987.3037109375 5394.94677734375 -14987.2841796875 C 5394.94287109375 -14987.28125 5394.93994140625 -14987.2783203125 5394.93603515625 -14987.2744140625 C 5394.83837890625 -14987.1806640625 5394.74072265625 -14987.087890625 5394.64306640625 -14986.9951171875 C 5394.64111328125 -14986.9931640625 5394.63916015625 -14986.9912109375 5394.63720703125 -14986.9892578125 C 5394.61474609375 -14986.96875 5394.5927734375 -14986.947265625 5394.5703125 -14986.92578125 C 5394.5673828125 -14986.923828125 5394.564453125 -14986.9208984375 5394.56201171875 -14986.91796875 C 5394.54052734375 -14986.8974609375 5394.51904296875 -14986.8779296875 5394.49755859375 -14986.857421875 C 5394.49462890625 -14986.8544921875 5394.490234375 -14986.8505859375 5394.48681640625 -14986.8466796875 C 5394.46484375 -14986.826171875 5394.4423828125 -14986.8046875 5394.42041015625 -14986.7841796875 C 5394.4189453125 -14986.7822265625 5394.41748046875 -14986.78125 5394.41552734375 -14986.779296875 C 5394.29150390625 -14986.662109375 5394.1669921875 -14986.544921875 5394.04248046875 -14986.4287109375 C 5394.04248046875 -14986.4287109375 5394.0419921875 -14986.427734375 5394.0419921875 -14986.427734375 C 5391.7880859375 -14984.31640625 5389.451171875 -14982.2890625 5387.041015625 -14980.35546875 L 5370.51953125 -15000.9443359375 C 5392.03857421875 -15018.109375 5405.8505859375 -15044.544921875 5405.8505859375 -15074.1474609375 C 5405.8505859375 -15125.759765625 5363.86083984375 -15167.75 5312.24853515625 -15167.75 C 5260.63818359375 -15167.75 5218.64990234375 -15125.759765625 5218.64990234375 -15074.1474609375 C 5218.64990234375 -15022.6171875 5260.5029296875 -14980.6787109375 5312.00048828125 -14980.544921875 L 5312.00048828125 -14954.001953125 C 5312.00048828125 -14954.001953125 5312.00048828125 -14954.001953125 5312.00048828125 -14954.001953125 Z"/></g><text class="d" transform="translate(0 120)"><tspan x="-68.12" y="38">Helium</tspan></text></svg>