<svg xmlns="http://www.w3.org/2000/svg" width="110" height="110" viewBox="0 0 110 110">
  <path id="settings-Regular" d="M57.25,78.4A21.154,21.154,0,1,1,78.4,57.25,21.176,21.176,0,0,1,57.25,78.4Zm0-33.846A12.692,12.692,0,1,0,69.942,57.25,12.7,12.7,0,0,0,57.25,44.558Zm2.821,67.692H54.429A12.7,12.7,0,0,1,41.737,99.558,2.047,2.047,0,0,0,40.5,97.64l-.045-.017a1.864,1.864,0,0,0-2.031.406,12.923,12.923,0,0,1-18.068.118l-3.977-3.983A12.7,12.7,0,0,1,16.4,76.187a2.064,2.064,0,0,0,.434-2.217,1.9,1.9,0,0,0-1.743-1.207A12.736,12.736,0,0,1,2.25,60.071V54.429A12.7,12.7,0,0,1,14.942,41.737,2.033,2.033,0,0,0,16.855,40.5l.023-.045a1.874,1.874,0,0,0-.406-2.031,12.694,12.694,0,0,1-.118-18.068l4-4a12.992,12.992,0,0,1,17.95,0,2.063,2.063,0,0,0,2.239.485,1.882,1.882,0,0,0,1.2-1.737A12.739,12.739,0,0,1,54.429,2.25h5.641A12.7,12.7,0,0,1,72.763,14.942a1.927,1.927,0,0,0,1.185,1.878l.011.006a2.04,2.04,0,0,0,2.161-.355,12.642,12.642,0,0,1,9.054-3.813h.017a12.609,12.609,0,0,1,8.975,3.717l3.983,3.977a12.693,12.693,0,0,1,0,17.95,1.935,1.935,0,0,0-.513,2.172l.034.079A1.875,1.875,0,0,0,99.4,41.737a12.739,12.739,0,0,1,12.85,12.692v5.641A12.7,12.7,0,0,1,99.558,72.763a1.927,1.927,0,0,0-1.878,1.185l-.006.011a2.058,2.058,0,0,0,.355,2.161,12.694,12.694,0,0,1,.1,18.046l-3.977,3.983a12.992,12.992,0,0,1-17.95,0,1.939,1.939,0,0,0-2.172-.513A1.991,1.991,0,0,0,72.763,99.4,12.739,12.739,0,0,1,60.071,112.25ZM44.225,90.069A10.531,10.531,0,0,1,50.2,99.4a4.269,4.269,0,0,0,4.231,4.389h5.641A4.232,4.232,0,0,0,64.3,99.558,10.554,10.554,0,0,1,70.817,89.8a10.29,10.29,0,0,1,11.243,2.239,4.256,4.256,0,0,0,6.1.118l3.983-3.977a4.242,4.242,0,0,0-.011-6A10.572,10.572,0,0,1,89.8,70.851l.028-.079.039-.1A10.27,10.27,0,0,1,99.411,64.3a4.266,4.266,0,0,0,4.377-4.231V54.429A4.232,4.232,0,0,0,99.558,50.2a10.367,10.367,0,0,1-9.7-6.374l-.011-.023a10.354,10.354,0,0,1,2.194-11.361A4.323,4.323,0,0,0,93.4,29.327a4.189,4.189,0,0,0-1.241-2.99l-3.977-3.983a4.23,4.23,0,0,0-3-1.235h-.006a4.175,4.175,0,0,0-3,1.247A10.593,10.593,0,0,1,70.851,24.7l-.079-.028-.1-.039A10.27,10.27,0,0,1,64.3,15.089a4.266,4.266,0,0,0-4.231-4.377H54.429A4.232,4.232,0,0,0,50.2,14.942a10.367,10.367,0,0,1-6.442,9.725,10.5,10.5,0,0,1-11.316-2.211,4.271,4.271,0,0,0-6.1-.118l-4,4a4.229,4.229,0,0,0,0,5.985A10.368,10.368,0,0,1,24.7,43.689a5.26,5.26,0,0,1-.265.536A10.531,10.531,0,0,1,15.1,50.2a4.269,4.269,0,0,0-4.389,4.231v5.641A4.232,4.232,0,0,0,14.942,64.3a10.34,10.34,0,0,1,9.691,6.4l.034.073.028.079a10.551,10.551,0,0,1-2.256,11.271,4.23,4.23,0,0,0-1.32,3.063,4.187,4.187,0,0,0,1.235,3l3.983,3.977a4.333,4.333,0,0,0,5.985,0A10.374,10.374,0,0,1,43.689,89.8,5.26,5.26,0,0,1,44.225,90.069Z" transform="translate(-2.25 -2.25)" fill="#76ffff" style="mix-blend-mode: color-dodge;isolation: isolate"/>
</svg>
