<?xml version="1.0" encoding="UTF-8"?>
<!DOCTYPE svg PUBLIC "-//W3C//DTD SVG 1.1//EN" "http://www.w3.org/Graphics/SVG/1.1/DTD/svg11.dtd">
<!-- Creator: CorelDRAW 2020 (64-Bit) -->
<svg xmlns="http://www.w3.org/2000/svg" xml:space="preserve" width="1300px" height="1300px" version="1.1" style="shape-rendering:geometricPrecision; text-rendering:geometricPrecision; image-rendering:optimizeQuality; fill-rule:evenodd; clip-rule:evenodd"
viewBox="0 0 1300 1300"
 xmlns:xlink="http://www.w3.org/1999/xlink"
 xmlns:xodm="http://www.corel.com/coreldraw/odm/2003">
 <defs>
  <style type="text/css">
   <![CDATA[
    .str0 {stroke:#5BC7CA;stroke-width:93.75;stroke-miterlimit:22.9256}
    .fil0 {fill:none}
    .fil2 {fill:none;fill-rule:nonzero}
    .fil3 {fill:#5914E5;fill-rule:nonzero}
    .fil5 {fill:#5BC7CA;fill-rule:nonzero}
    .fil4 {fill:#CC66E6;fill-rule:nonzero}
    .fil1 {fill:#EC6CB9;fill-rule:nonzero}
   ]]>
  </style>
 </defs>
 <g id="Слой_x0020_1">
  <metadata id="CorelCorpID_0Corel-Layer"/>
  <g id="_1859712248352">
   <g>
    <g>
     <path class="fil0" d="M170.24 0l959.52 0c94,0 170.24,76.24 170.24,170.24l0 959.52c0,94 -76.24,170.24 -170.24,170.24l-959.52 0c-94,0 -170.24,-76.24 -170.24,-170.24l0 -959.52c0,-94 76.24,-170.24 170.24,-170.24z"/>
     <path class="fil0 str0" d="M170.24 46.43l959.52 0c68.37,0 123.81,55.44 123.81,123.81l0 959.52c0,68.37 -55.44,123.81 -123.81,123.81l-959.52 0c-68.37,0 -123.81,-55.44 -123.81,-123.81l0 -959.52c0,-68.37 55.44,-123.81 123.81,-123.81z"/>
    </g>
    <g>
     <g>
      <polygon class="fil0" points="650.06,331.49 763.29,836.66 538.36,836.66 "/>
      <g>
       <path class="fil1" d="M650.31 502.41l-65.7 297.1 132.29 0 -66.59 -297.1 0 0zm-0.25 -170.92l113.23 505.17 -224.93 0 111.7 -505.17z"/>
      </g>
     </g>
     <g>
      <polygon class="fil2" points="563.99,186.66 950.19,836.66 177.8,836.66 "/>
      <g>
       <path class="fil3" d="M563.99 259.38l-320.92 540.13 641.85 0 -320.93 -540.13 0 0zm0 -72.72l386.2 650 -772.39 0 386.19 -650z"/>
      </g>
     </g>
     <g>
      <polygon class="fil2" points="736,186.66 1122.19,836.66 349.81,836.66 "/>
      <g>
       <path class="fil4" d="M736 259.38l-320.92 540.13 641.84 0 -320.92 -540.13 0 0zm0 -72.72l386.2 650 -772.39 0 386.19 -650z"/>
      </g>
     </g>
    </g>
   </g>
   <path class="fil5" d="M281.56 1096.34c7.15,25.99 40.95,32.49 63.05,32.49 26.64,0 63.69,-9.1 63.69,-42.24 0,-32.5 -31.85,-34.02 -61.53,-36.62 -25.13,-1.95 -46.8,-3.9 -46.8,-22.75 0,-19.72 28.17,-24.48 42.69,-24.48 15.6,0 38.78,1.73 45.28,18.2 3.25,7.36 17.98,3.46 14.73,-5.2 -9.1,-24.7 -37.48,-29.03 -60.23,-29.03 -26.43,0 -59.37,11.7 -59.37,40.29 0,32.29 32.07,35.1 61.97,37.49 23.83,1.95 46.58,3.46 46.58,22.31 0,21.88 -28.6,26.43 -47.01,26.43 -17.34,0 -41.39,-2.81 -47.02,-20.79 -1.73,-8.89 -18.63,-5.64 -16.03,3.9z"/>
   <path id="1" class="fil5" d="M553.68 988.87l-112.23 0c-10.18,0 -10.18,14.95 0,14.95l48.1 0 0 114.83c0,5.42 4.12,8.02 7.8,8.02 3.68,0 8.23,-2.6 8.23,-8.02l-0.21 -114.83 48.31 0c10.62,0 10.62,-14.95 0,-14.95z"/>
   <path id="2" class="fil5" d="M636.19 986.71c-2.81,0 -5.85,1.3 -7.15,4.11l-63.91 125.66c-2.6,5.64 2.82,10.19 7.8,10.19 2.6,0 4.98,-1.09 6.5,-3.9l16.03 -30.99 81.46 0 15.6 30.77c1.52,3.03 4.34,4.12 7.15,4.12 5.42,0 10.4,-4.34 7.37,-10.4l-63.91 -125.45c-1.52,-2.81 -4.12,-4.11 -6.94,-4.11zm0 23.18l34.02 68.25 -68.25 0 34.23 -68.25z"/>
   <path id="3" class="fil5" d="M766.01 1078.57l42.03 0 41.81 45.28c1.74,1.95 3.9,2.82 5.85,2.82 5.85,0 11.05,-7.15 4.99,-13.22l-33.15 -35.75c26.65,-4.55 38.56,-20.36 38.56,-42.25 0,-25.35 -19.06,-46.58 -56.54,-46.58l-51.35 0c-4.77,0 -8.02,3.04 -8.02,7.59l0 122.84c0,4.77 3.9,7.37 7.8,7.37 4.12,0 8.02,-2.6 8.02,-7.59l0 -40.51zm0 -13.65l0 -61.53 43.76 0c25.14,0 40.08,14.3 40.3,32.93 0,15.82 -12.35,28.6 -40.3,28.6l-43.76 0z"/>
   <path id="4" class="fil5" d="M1017.55 988.87l-112.23 0c-10.18,0 -10.18,14.95 0,14.95l48.1 0 0 114.83c0,5.42 4.11,8.02 7.8,8.02 3.68,0 8.23,-2.6 8.23,-8.02l-0.22 -114.83 48.32 0c10.62,0 10.62,-14.95 0,-14.95z"/>
  </g>
 </g>
</svg>
