<svg xmlns="http://www.w3.org/2000/svg" width="420" height="420" viewBox="0 0 420 420">
  <g id="Сгруппировать_2100" data-name="Сгруппировать 2100" transform="translate(-5341 -906)">
    <g id="Сгруппировать_2099" data-name="Сгруппировать 2099" transform="translate(3951 286)">
      <g id="Прямоугольник_1375" data-name="Прямоугольник 1375" transform="translate(1390 620)" fill="none" stroke="#5bc7ca" stroke-width="30">
        <rect width="420" height="420" rx="55" stroke="none"/>
        <rect x="15" y="15" width="390" height="390" rx="40" fill="none"/>
      </g>
      <g id="Сгруппировать_2082" data-name="Сгруппировать 2082" transform="translate(-3094.131 -16081.694)" style="isolation: isolate">
        <g id="Контур_68419" data-name="Контур 68419" transform="translate(4664.074 16786.428)" fill="none">
          <path d="M30.075,1.565,60.56,137.573H0Z" stroke="none"/>
          <path d="M 30.15449714660645 56.78530883789063 L 14.94343566894531 125.5733795166016 L 45.57250595092773 125.5733795166016 L 30.15449714660645 56.78530883789063 M 30.07535743713379 1.565414428710938 L 60.55988693237305 137.5733795166016 L 3.814697265625e-06 137.5733795166016 L 30.07535743713379 1.565414428710938 Z" stroke="none" fill="#ec6cb9"/>
        </g>
        <g id="Многоугольник_6" data-name="Многоугольник 6" transform="translate(4567 16749)" fill="none">
          <path d="M103.976,0,207.952,175H0Z" stroke="none"/>
          <path d="M 103.9760055541992 23.49296569824219 L 21.08805847167969 163.0003051757813 L 186.8639526367188 163.0003051757813 L 103.9760055541992 23.49296569824219 M 103.9760055541992 -1.52587890625e-05 L 207.9520111083984 175.0003051757813 L 0 175.0003051757813 L 103.9760055541992 -1.52587890625e-05 Z" stroke="none" fill="#5914e5"/>
        </g>
        <g id="Многоугольник_7" data-name="Многоугольник 7" transform="translate(4613.311 16749)" fill="none">
          <path d="M103.976,0,207.952,175H0Z" stroke="none"/>
          <path d="M 103.9760055541992 23.49296569824219 L 21.08805847167969 163.0003051757813 L 186.8639526367188 163.0003051757813 L 103.9760055541992 23.49296569824219 M 103.9760055541992 -1.52587890625e-05 L 207.9520111083984 175.0003051757813 L 0 175.0003051757813 L 103.9760055541992 -1.52587890625e-05 Z" stroke="none" fill="#cc66e6"/>
        </g>
      </g>
    </g>
    <text id="START" transform="translate(5372 1156)" fill="#5bc7ca" font-size="100" font-family="Hero-Bold, Hero" font-weight="700"><tspan x="24.25" y="95">START</tspan></text>
  </g>
</svg>
