<svg xmlns="http://www.w3.org/2000/svg" width="420" height="420" viewBox="0 0 420 420"><defs><style>.a,.c,.f{fill:none;}.a{stroke:#5bc7ca;stroke-width:30px;}.b{isolation:isolate;}.d{fill:#5bc7ca;font-size:70px;font-family:Hero-Regular, Hero;letter-spacing:0.09em;}.e,.g,.h,.i{stroke:none;}.g{fill:#ec6cb9;}.h{fill:#5914e5;}.i{fill:#cc66e6;}</style></defs><g transform="translate(-5341 -906)"><g transform="translate(3951 286)"><g class="a" transform="translate(1390 620)"><rect class="e" width="420" height="420" rx="55"/><rect class="f" x="15" y="15" width="390" height="390" rx="40"/></g><g class="b" transform="translate(-3119.557 -16068.694)"><g class="c" transform="translate(4683.488 16794.225)"><path class="e" d="M36.09,1.565,72.671,164.774H0Z"/><path class="g" d="M 36.16928863525391 56.78536224365234 L 14.94344711303711 152.7737579345703 L 57.68394470214844 152.7737579345703 L 36.16928863525391 56.78536224365234 M 36.09012603759766 1.5654296875 L 72.67132568359375 164.7737579345703 L -7.62939453125e-06 164.7737579345703 L 36.09012603759766 1.5654296875 Z"/></g><g class="c" transform="translate(4567 16749)"><path class="e" d="M124.77,0l124.77,210H0Z"/><path class="h" d="M 124.770263671875 23.49293518066406 L 21.08804321289063 197.9987487792969 L 228.4524841308594 197.9987487792969 L 124.770263671875 23.49293518066406 M 124.770263671875 -1.52587890625e-05 L 249.5405426025391 209.9987487792969 L -1.52587890625e-05 209.9987487792969 L 124.770263671875 -1.52587890625e-05 Z"/></g><g class="c" transform="translate(4622.572 16749)"><path class="e" d="M124.77,0l124.77,210H0Z"/><path class="i" d="M 124.770263671875 23.49293518066406 L 21.08804321289063 197.9987487792969 L 228.4524841308594 197.9987487792969 L 124.770263671875 23.49293518066406 M 124.770263671875 -1.52587890625e-05 L 249.5405426025391 209.9987487792969 L -1.52587890625e-05 209.9987487792969 L 124.770263671875 -1.52587890625e-05 Z"/></g></g></g><text class="d" transform="translate(5373 1203)"><tspan x="57.425" y="67">START</tspan></text></g></svg>