<svg xmlns="http://www.w3.org/2000/svg" width="420" height="420" viewBox="0 0 420 420">
  <g id="Сгруппировать_2101" data-name="Сгруппировать 2101" transform="translate(-4790 -906)">
    <g id="Сгруппировать_2098" data-name="Сгруппировать 2098" transform="translate(3311 276)">
      <g id="Прямоугольник_1375" data-name="Прямоугольник 1375" transform="translate(1479 630)" fill="none" stroke="#ed76c1" stroke-width="30">
        <rect width="420" height="420" rx="55" stroke="none"/>
        <rect x="15" y="15" width="390" height="390" rx="40" fill="none"/>
      </g>
      <text id="STOP" transform="translate(1511 881)" fill="#ed76c1" font-size="100" font-family="Hero-Bold, Hero" font-weight="700" letter-spacing="0.09em"><tspan x="36.1" y="95">STOP</tspan></text>
    </g>
    <path id="times-square-Bold_1_" d="M660.936,1815.436,640.872,1835.5l20.064,20.064a8.748,8.748,0,1,1-12.372,12.371L628.5,1847.871l-20.064,20.064a8.748,8.748,0,0,1-12.372-12.371l20.064-20.064-20.064-20.064a8.748,8.748,0,0,1,12.372-12.371l20.064,20.062,20.065-20.062a8.748,8.748,0,1,1,12.371,12.371ZM716,1809.249v52.5A61.323,61.323,0,0,1,654.75,1923h-52.5A61.323,61.323,0,0,1,541,1861.75v-52.5A61.322,61.322,0,0,1,602.25,1748h52.5A61.322,61.322,0,0,1,716,1809.249Zm-17.5,0a43.8,43.8,0,0,0-43.75-43.751h-52.5a43.8,43.8,0,0,0-43.75,43.751v52.5a43.8,43.8,0,0,0,43.75,43.749h52.5a43.8,43.8,0,0,0,43.75-43.749Z" transform="translate(4371.5 -795)" fill="#ec6cb9"/>
  </g>
</svg>
