<?xml version="1.0" encoding="UTF-8"?>
<!DOCTYPE svg PUBLIC "-//W3C//DTD SVG 1.1//EN" "http://www.w3.org/Graphics/SVG/1.1/DTD/svg11.dtd">
<!-- Creator: CorelDRAW 2020 (64-Bit) -->
<svg xmlns="http://www.w3.org/2000/svg" xml:space="preserve" width="1300px" height="1300px" version="1.1" style="shape-rendering:geometricPrecision; text-rendering:geometricPrecision; image-rendering:optimizeQuality; fill-rule:evenodd; clip-rule:evenodd"
viewBox="0 0 1300 1300"
 xmlns:xlink="http://www.w3.org/1999/xlink"
 xmlns:xodm="http://www.corel.com/coreldraw/odm/2003">
 <defs>
  <style type="text/css">
   <![CDATA[
    .str0 {stroke:#ED76C1;stroke-width:93.75;stroke-miterlimit:22.9256}
    .str1 {stroke:#ED76C1;stroke-width:93.75;stroke-linecap:round;stroke-miterlimit:22.9256}
    .fil0 {fill:none}
    .fil2 {fill:none;fill-rule:nonzero}
    .fil1 {fill:#ED76C1;fill-rule:nonzero}
   ]]>
  </style>
 </defs>
 <g id="Слой_x0020_1">
  <metadata id="CorelCorpID_0Corel-Layer"/>
  <g id="stopBtn-2.svg">
   <g>
    <g>
     <g>
      <g>
       <path class="fil0" d="M170.24 0l959.52 0c94.01,0 170.24,76.23 170.24,170.24l0 959.52c0,94 -76.23,170.24 -170.24,170.24l-959.52 0c-94,0 -170.24,-76.24 -170.24,-170.24l0 -959.52c0,-94.01 76.24,-170.24 170.24,-170.24z"/>
       <path class="fil0 str0" d="M170.24 46.43l959.52 0c68.37,0 123.81,55.44 123.81,123.81l0 959.52c0,68.37 -55.44,123.81 -123.81,123.81l-959.52 0c-68.37,0 -123.81,-55.44 -123.81,-123.81l0 -959.52c0,-68.37 55.44,-123.81 123.81,-123.81z"/>
      </g>
      <path class="fil1" d="M368.98 1099.43c7.15,26 40.95,32.5 63.05,32.5 26.65,0 63.7,-9.1 63.7,-42.25 0,-32.5 -31.85,-34.02 -61.53,-36.62 -25.13,-1.95 -46.8,-3.9 -46.8,-22.75 0,-19.71 28.17,-24.48 42.68,-24.48 15.6,0 38.79,1.73 45.29,18.2 3.25,7.36 17.98,3.46 14.73,-5.2 -9.1,-24.7 -37.48,-29.03 -60.23,-29.03 -26.44,0 -59.37,11.7 -59.37,40.3 0,32.28 32.07,35.1 61.97,37.48 23.83,1.95 46.58,3.47 46.58,22.31 0,21.89 -28.6,26.44 -47.02,26.44 -17.33,0 -41.38,-2.82 -47.01,-20.8 -1.74,-8.88 -18.64,-5.64 -16.04,3.9z"/>
      <path id="1" class="fil1" d="M641.12 991.96l-112.24 0c-10.18,0 -10.18,14.95 0,14.95l48.1 0 0 114.84c0,5.41 4.12,8.01 7.8,8.01 3.69,0 8.24,-2.6 8.24,-8.01l-0.22 -114.84 48.32 0c10.61,0 10.61,-14.95 0,-14.95z"/>
      <path id="2" class="fil1" d="M742.3 1131.93c36.83,0 69.33,-28.39 69.33,-73.45 0,-48.75 -42.03,-68.68 -71.06,-68.68 -28.6,0 -68.47,20.14 -68.47,68.68 0,45.93 31.2,73.45 70.2,73.45zm-53.95 -72.8c0,-40.73 30.55,-54.82 52.65,-54.82 22.32,0 54.6,15.17 54.6,54.82 0,36.4 -24.05,58.06 -53.3,58.06 -30.55,0 -53.95,-22.53 -53.95,-58.06z"/>
      <path id="3" class="fil1" d="M877.07 1089.25l38.78 0c37.92,0 55.68,-21.45 55.68,-47.45 0,-24.92 -17.55,-49.84 -55.03,-49.84l-47.02 0c-4.33,0 -8.01,3.04 -8.01,7.59l0 123.06c0,4.77 3.9,7.15 7.8,7.15 3.9,0 7.8,-2.38 7.8,-7.36l0 -33.15zm0 -14.09l0 -69.12 39.65 0c25.13,0 39.43,17.99 39.43,35.76 0,16.46 -11.48,33.36 -40.3,33.36l-38.78 0z"/>
     </g>
    </g>
    <g>
     <line class="fil2 str1" x1="930.27" y1="230.07" x2="369.73" y2= "790.61" />
     <line class="fil2 str1" x1="369.73" y1="230.07" x2="930.27" y2= "790.61" />
    </g>
   </g>
  </g>
 </g>
</svg>
