<svg xmlns="http://www.w3.org/2000/svg" width="110" height="138.409" viewBox="0 0 110 138.409">
  <g id="user-Regular" style="isolation: isolate">
    <path id="user-Regular_1_" d="M742.245,1302.776a37.263,37.263,0,1,0-37.263-37.263A37.3,37.3,0,0,0,742.245,1302.776Zm0-63.88a26.616,26.616,0,1,1-26.616,26.616A26.644,26.644,0,0,1,742.245,1238.9ZM797.252,1339.8v7.175a26.751,26.751,0,0,1-6.821,17.9,5.32,5.32,0,1,1-7.928-7.1,16.167,16.167,0,0,0,4.109-10.8v-7.176a23.131,23.131,0,0,0-17.339-22.606,7.242,7.242,0,0,0-5.295.681,44.771,44.771,0,0,1-43.41.022,7.16,7.16,0,0,0-5.33-.71,23.151,23.151,0,0,0-17.346,22.614v7.176a16.14,16.14,0,0,0,4.109,10.8,5.323,5.323,0,0,1-7.928,7.1,26.781,26.781,0,0,1-6.821-17.9v-7.176a33.782,33.782,0,0,1,25.389-32.933,17.923,17.923,0,0,1,13.159,1.761,34.056,34.056,0,0,0,32.961-.021,17.948,17.948,0,0,1,13.124-1.732A33.745,33.745,0,0,1,797.252,1339.8Z" transform="translate(-687.252 -1228.25)" fill="#2e8190"/>
  </g>
</svg>
